<?xml version="1.0" standalone="no"?>
<!DOCTYPE svg PUBLIC "-//W3C//DTD SVG 20010904//EN"
 "http://www.w3.org/TR/2001/REC-SVG-20010904/DTD/svg10.dtd">
<svg version="1.0" xmlns="http://www.w3.org/2000/svg"
 width="512.000000pt" height="512.000000pt" viewBox="0 0 512.000000 512.000000"
 preserveAspectRatio="xMidYMid meet">

<g transform="translate(0.000000,512.000000) scale(0.100000,-0.100000)"
fill="#000000" stroke="none">
<path d="M2416 5070 l-47 -50 -55 47 -55 47 -185 -185 -184 -184 0 -198 0
-197 -80 -160 -80 -160 0 -368 0 -368 -75 -74 -75 -75 2 -290 3 -290 75 0 75
0 3 264 2 265 75 77 75 77 0 381 0 381 75 150 75 150 0 188 0 187 113 113 113
112 58 -52 59 -52 30 35 c123 139 110 129 169 129 l53 0 112 -164 c111 -162
114 -164 177 -194 l63 -30 5 -56 c6 -76 45 -132 117 -168 118 -60 269 -20 311
83 11 26 17 29 61 29 l49 0 0 -90 0 -90 -137 -69 c-136 -68 -140 -71 -260
-193 l-123 -125 0 -106 0 -107 75 0 75 0 0 73 0 72 93 99 c91 98 93 99 262
185 l170 86 3 208 2 207 -180 -2 -181 -3 -22 -54 c-28 -70 -64 -98 -109 -85
-19 6 -39 21 -48 36 -13 25 -13 34 1 89 l16 61 -103 50 -103 49 -123 179 -123
179 -126 1 -126 0 -47 -50z"/>
<path d="M2182 4588 l3 -73 75 0 75 0 3 73 3 72 -81 0 -81 0 3 -72z"/>
<path d="M2182 4288 l3 -73 75 0 75 0 3 73 3 72 -81 0 -81 0 3 -72z"/>
<path d="M3010 3469 l0 -72 75 -84 75 -84 0 -114 0 -113 -32 -11 c-18 -5 -113
-31 -211 -57 -167 -44 -178 -49 -197 -79 -37 -60 -106 -71 -185 -30 -26 14
-48 24 -49 23 -1 -2 -32 -50 -68 -108 -72 -115 -92 -171 -82 -228 10 -55 29
-86 77 -128 l43 -37 -80 -134 -81 -133 -61 0 -61 0 -76 -160 c-43 -88 -77
-164 -77 -169 0 -4 54 -44 120 -87 l120 -79 0 -72 0 -73 -195 -156 c-107 -86
-195 -157 -195 -159 0 -1 20 -46 45 -99 25 -54 45 -102 45 -107 0 -5 -56 -9
-128 -9 l-127 0 -58 96 -57 95 0 121 c0 117 2 128 75 414 66 259 75 305 75
384 l0 90 -80 0 -80 0 0 -100 c0 -92 -7 -127 -75 -400 -72 -289 -75 -304 -75
-417 l0 -118 93 -155 93 -155 247 -3 247 -2 0 105 c0 94 -3 111 -26 156 -14
28 -23 56 -21 63 2 6 81 72 175 146 l171 135 1 150 0 150 -100 65 c-55 36
-100 69 -100 73 0 4 13 34 30 67 l30 59 57 3 57 3 138 229 c75 126 135 233
133 236 -3 4 -36 27 -75 50 -68 41 -100 72 -100 96 0 6 18 39 40 71 l40 60 49
-9 c66 -14 147 10 197 57 34 33 56 41 271 97 l233 62 0 200 0 201 -75 85 c-67
77 -75 89 -75 128 l0 42 -75 0 -75 0 0 -71z"/>
<path d="M1582 2338 l3 -73 75 0 75 0 3 73 3 72 -81 0 -81 0 3 -72z"/>
<path d="M1887 613 c-4 -3 -7 -79 -7 -168 l0 -161 178 -142 177 -142 163 0
162 0 0 178 -1 177 -160 133 -160 132 -173 0 c-95 0 -176 -3 -179 -7z m410
-235 l112 -93 0 -67 1 -68 -61 0 -61 0 -124 98 -123 97 -1 63 0 62 73 0 72 0
112 -92z"/>
</g>
</svg>
