<?xml version="1.0" standalone="no"?>
<!DOCTYPE svg PUBLIC "-//W3C//DTD SVG 20010904//EN"
 "http://www.w3.org/TR/2001/REC-SVG-20010904/DTD/svg10.dtd">
<svg version="1.0" xmlns="http://www.w3.org/2000/svg"
 width="512.000000pt" height="512.000000pt" viewBox="0 0 512.000000 512.000000"
 preserveAspectRatio="xMidYMid meet">

<g transform="translate(0.000000,512.000000) scale(0.100000,-0.100000)"
fill="#000000" stroke="none">
<path d="M2616 4978 c-64 -98 -78 -198 -85 -613 l-6 -360 -55 -110 -55 -110 0
-100 c0 -55 7 -149 14 -208 19 -142 11 -190 -73 -399 -87 -218 -118 -381 -120
-628 -1 -157 0 -167 24 -215 33 -67 84 -94 137 -74 46 18 69 61 82 157 7 57
19 89 54 150 62 106 71 143 56 243 -16 114 -9 147 54 247 62 99 66 108 77 177
6 36 2 81 -11 160 -38 211 -19 374 76 674 61 192 64 198 139 314 64 97 86 147
86 193 0 42 -24 56 -87 53 -55 -4 -51 -10 -128 207 -32 87 -64 172 -72 189
-22 43 -54 75 -75 75 -9 0 -24 -10 -32 -22z m105 -273 c23 -71 52 -152 66
-178 25 -50 72 -87 111 -87 12 0 22 -4 22 -8 0 -5 -25 -49 -57 -98 -92 -145
-99 -162 -152 -334 -96 -310 -121 -483 -94 -627 10 -48 17 -131 18 -183 0 -96
0 -96 -42 -160 -23 -36 -54 -91 -69 -124 -25 -55 -26 -64 -19 -140 13 -134 9
-172 -21 -224 -58 -99 -74 -139 -83 -203 -11 -77 -25 -111 -45 -103 -47 18
-58 194 -27 424 24 175 44 248 108 404 84 204 97 300 67 471 -9 53 -14 120
-11 163 3 64 11 86 58 180 l54 107 6 365 c6 331 12 414 35 504 l7 29 13 -24
c8 -13 32 -82 55 -154z"/>
<path d="M2168 2210 c-21 -13 -34 -55 -48 -153 -16 -122 -14 -153 12 -171 32
-23 80 -20 107 6 27 24 65 106 82 173 10 38 9 49 -5 70 -13 19 -72 58 -126 82
-3 1 -13 -2 -22 -7z m65 -106 c13 -5 14 -11 3 -47 -7 -23 -20 -55 -29 -72
l-17 -30 6 50 c7 63 15 105 19 105 2 0 10 -3 18 -6z"/>
<path d="M2404 2110 c-34 -13 -73 -68 -89 -123 -17 -59 -34 -181 -35 -245 0
-33 -9 -56 -38 -100 -51 -74 -56 -98 -41 -201 11 -81 10 -90 -11 -146 -53
-144 -54 -149 -31 -224 11 -37 28 -101 36 -142 8 -41 27 -109 41 -152 24 -73
30 -81 90 -129 35 -29 64 -52 65 -52 0 -1 6 -54 13 -119 11 -103 16 -123 42
-160 39 -55 87 -80 211 -111 56 -14 121 -37 144 -52 23 -14 59 -29 80 -31 31
-5 42 -1 63 20 29 29 32 55 12 96 -11 21 -28 31 -76 44 -58 17 -62 20 -82 64
-15 34 -22 75 -25 152 -6 137 -14 161 -74 215 -40 36 -61 47 -107 56 -136 25
-156 38 -183 118 -12 36 -22 49 -45 57 -43 15 -54 24 -54 45 0 10 34 87 76
171 97 195 103 213 114 339 6 62 20 137 35 184 31 96 27 130 -35 256 -24 51
-40 98 -40 120 0 20 -5 41 -12 48 -14 14 -15 14 -44 2z m61 -290 c14 -44 14
-50 -9 -128 -14 -45 -30 -128 -36 -185 -13 -116 -36 -192 -80 -268 -17 -28
-45 -79 -61 -112 -23 -45 -33 -57 -40 -46 -17 27 -9 99 19 166 28 70 31 106
21 249 -4 54 -1 64 24 97 44 58 56 97 63 204 3 54 11 116 16 138 l10 40 29
-55 c15 -30 35 -75 44 -100z m-134 -950 c5 0 9 -7 9 -17 0 -9 11 -35 25 -59
28 -49 78 -76 170 -94 114 -23 155 -61 155 -144 0 -78 19 -215 35 -254 l15
-34 -34 6 c-107 20 -180 58 -206 107 -6 10 -14 66 -19 124 -9 120 -17 137 -96
197 -39 29 -53 49 -72 98 -27 74 -28 84 -7 76 9 -3 20 -6 25 -6z"/>
</g>
</svg>
