<svg
      version="1.0"
      xmlns="http://www.w3.org/2000/svg"
      width="41.000000pt"
      height="41.000000pt"
      viewBox="0 0 41.000000 41.000000"
      preserveAspectRatio="xMidYMid meet"
    >
      <g
        transform="translate(0.000000,41.000000) scale(0.100000,-0.100000)"
        fill="#000000"
        stroke="none"
      >
        <path
          d="M175 401 c-39 -10 -88 -36 -104 -55 -12 -14 -7 -16 46 -16 l60 0 6
-42 c4 -28 2 -44 -5 -47 -25 -9 -101 -88 -120 -125 l-20 -40 33 -30 33 -29 15
34 15 34 7 -45 c6 -45 6 -45 8 15 4 144 94 223 190 164 l34 -20 -5 38 c-16
118 -98 187 -193 164z m63 -63 c18 -18 15 -28 -8 -28 -13 0 -20 7 -20 20 0 23
10 26 28 8z"
        />
        <path
          d="M53 288 c-18 -6 -33 -15 -33 -20 0 -5 5 -6 11 -2 7 4 30 13 53 20 23
7 32 13 21 12 -11 0 -35 -5 -52 -10z"
        />
        <path
          d="M95 249 c-64 -25 -97 -52 -89 -73 5 -13 13 -10 46 20 22 20 59 44 82
55 54 25 25 23 -39 -2z"
        />
        <path
          d="M276 158 c-8 -38 15 -131 36 -144 6 -4 6 1 -1 14 -17 33 -13 37 12
13 21 -19 25 -20 37 -6 10 13 8 18 -14 36 -30 24 -47 51 -56 94 l-7 30 -7 -37z"
        />
        <path
          d="M367 144 c-8 -8 1 -24 14 -24 5 0 9 7 9 15 0 15 -12 20 -23 9z"
        />
      </g>
    </svg>